<svg width="64" height="64" xmlns="http://www.w3.org/2000/svg" xml:space="preserve" version="1.1">

 <g>
  <title>Layer 1</title>
  <g id="Guide">
   <g id="svg_1"/>
   <g id="svg_2"/>
   <g id="svg_3"/>
   <g id="svg_4"/>
   <g id="svg_5"/>
   <g id="svg_6"/>
   <g id="svg_7"/>
   <g id="svg_8"/>
   <g id="svg_9"/>
   <g id="svg_10"/>
   <g id="svg_11"/>
   <g id="svg_12"/>
   <g id="svg_13"/>
   <g id="svg_14"/>
   <g id="svg_15"/>
   <g id="svg_16"/>
   <g id="svg_17"/>
   <g id="svg_18"/>
   <g id="svg_19"/>
   <g id="svg_20"/>
   <g id="svg_21"/>
   <g id="svg_22"/>
   <g id="svg_23"/>
   <g id="svg_24"/>
   <g id="svg_25"/>
   <g id="svg_26"/>
   <g id="svg_27"/>
   <g id="svg_28"/>
   <g id="svg_29"/>
   <g id="svg_30"/>
   <g id="svg_31"/>
   <g id="svg_32"/>
   <g id="svg_33"/>
   <g id="svg_34"/>
   <g id="svg_35"/>
   <g id="svg_36"/>
  </g>
  <path id="svg_37" d="m3,19l1,0l0,42c0,1.654 1.346,3 3,3s3,-1.346 3,-3l0,-42l1,0c1.654,0 3,-1.346 3,-3l0,-10c0,-1.654 -1.346,-3 -3,-3c-0.771,0 -1.468,0.301 -2,0.78c-0.532,-0.479 -1.229,-0.78 -2,-0.78s-1.468,0.301 -2,0.78c-0.532,-0.479 -1.229,-0.78 -2,-0.78c-1.654,0 -3,1.346 -3,3l0,10c0,1.654 1.346,3 3,3zm-1,-13c0,-0.552 0.449,-1 1,-1s1,0.448 1,1l0,8l2,0l0,-8c0,-0.552 0.449,-1 1,-1s1,0.448 1,1l0,8l2,0l0,-8c0,-0.552 0.449,-1 1,-1s1,0.448 1,1l0,10c0,0.552 -0.449,1 -1,1l-2,0c-0.552,0 -1,0.447 -1,1l0,43c0,0.552 -0.449,1 -1,1s-1,-0.448 -1,-1l0,-43c0,-0.553 -0.448,-1 -1,-1l-2,0c-0.551,0 -1,-0.448 -1,-1l0,-10z"/>
  <path id="svg_41" d="m57,3c-3.86,0 -7,3.141 -7,7l0,6c0,2.415 1.721,4.435 4,4.899l0,40.101c0,1.654 1.346,3 3,3s3,-1.346 3,-3l0,-40.101c2.279,-0.465 4,-2.484 4,-4.899l0,-6c0,-3.859 -3.14,-7 -7,-7zm5,13c0,1.654 -1.346,3 -3,3c-0.552,0 -1,0.447 -1,1l0,41c0,0.552 -0.449,1 -1,1s-1,-0.448 -1,-1l0,-41c0,-0.553 -0.448,-1 -1,-1c-1.654,0 -3,-1.346 -3,-3l0,-6c0,-2.757 2.243,-5 5,-5s5,2.243 5,5l0,6z"/>
  <path id="svg_50" d="m32,56c10.477,0 19,-8.523 19,-19s-8.523,-19 -19,-19s-19,8.523 -19,19s8.523,19 19,19zm0,-36c9.374,0 17,7.626 17,17s-7.626,17 -17,17s-17,-7.626 -17,-17s7.626,-17 17,-17z"/>
  <path id="svg_51" d="m32,51c7.72,0 14,-6.28 14,-14s-6.28,-14 -14,-14s-14,6.28 -14,14s6.28,14 14,14zm0,-26c6.617,0 12,5.383 12,12s-5.383,12 -12,12s-12,-5.383 -12,-12s5.383,-12 12,-12z"/>
 </g>
</svg>